<?xml version="1.0" encoding="UTF-8"?>
<svg xmlns="http://www.w3.org/2000/svg" version="1.1" viewBox="0 0 500 172.6">
  <defs>
    <style>
      .cls-1 {
        fill: #fff;
      }
    </style>
  </defs>
  <!-- Generator: Adobe Illustrator 28.7.5, SVG Export Plug-In . SVG Version: 1.2.0 Build 176)  -->
  <g>
    <g id="Layer_1">
      <path class="cls-1" d="M0,163.3h3.9V0H0v163.3Z"/>
      <path class="cls-1" d="M96.1,27.1c.7,1.8,2,2.5,3,2-2.2-.3-.4-4.1-3.3-4.1s-.3,0-.5,0c-.5-.5-1-.7-1.9-.7-1.2,0-3.3,1.2-3.3,3.6,0,5.2,6.1,5.7,6.1,10.3s-1,2.2-2.2,2.2-1.9-1.2-2.7-2.9c-.4-.8-1.3-2-2.2-3.2.3.2.6.3.9.3s.6,0,.8-.3c.2-.2.3-.5.4-.8h0c0-.5-.2-.9-.5-1.2-.3-.3-.8-.5-1.2-.5-.3,0-.6,0-.8.3-.2.2-.3.5-.3.8h0c0,.2,0,.4,0,.6-1.3-1.7-2.5-3.4-2.5-4.3s.5-1.5,1.2-2.4c0,0,.2.1.2.1l.2-.2c.2-.3.8-.9,1.8-2l.3-.3-.6-.5c.2-.4.3-.8.4-1.3.2.9.6,1.4,1.2,1.2-.4-.9.4-2-.1-4.2.5.8,1.2,1.2,1.7,1.1-1.4-1.2.4-2.9-1.4-5.4.6.2,1,0,1.2-.2-1.6-.2-.9-2.3-3.7-3,.7-.1,1.1-.5,1-.9-.8.5-1.4-1-3.8-1-.2-.9-1-1.9-1.9-2.3.2.7,0,1.3-.2,1.9l-7.9-7.8c-.2-.2-.4-.3-.4-.2,0,0,0,.2,0,.4l6.8,8.5c-.5.2-1,.4-1.5.6-.4.2-.6.5-.6.9-1.3.6-2.4,1.4-2.9,1.9-.4.4-.8.5-.4,1.3.2.3-.3,1.2.7.5.6-.4,2.1-1.2,2.3-.7.1.2-.6.6-1.1.8-.5.2-1,.6-1,.8,0,.2.5,0,.5.2,0,.2.2.4.4.4s.5-.4.6-.3c.2.2,0,1.1-.2,1.3.8,0,1.2-.8,1.3-1.4,0-.6.2-.7.3-.8.1,0,.2.6,0,1,.4,0,.8-.6.8-1.6.2-.2.4-.3.5-.3.3,0,.8.7,1.5.7,1.3,0,2.1-1.1,2.2-1.6,0-.4,0-.8-.2-1.1.5.4.6,1,.6,1.4,0,1.9-3.4,2.8-4.7,4.2,0,0-.1,0-.2.1l-1.6-.6v.4c0,0-.1,0-.2.3-.2.5-.5,1.7-.7,2.3v.3c0,0,0,0,0,0-.9,1.2-1.7,2.6-1.9,4.1-.4-.4-.7-.7-1.2-1.1,0-.1,0-.3,0-.4,0-.4,0-.9-.4-1.1-.2-.2-.5-.4-.7-.4-.3,0-.5,0-.8.3,0,0,0,0-.2.2,0,0,0,0-.2-.1-.5-.4-1.2-.9-1.6-1.3-.2-.2-.4-.3-.7-.3h-.7c-.2,0-.4.2-.6.4-.1.1-.5.4-.9.7.2.2.4.4.6.6,0,.1.2.2.3.4,0,0,.2-.2.3-.2.2-.1.4-.2.6-.2s.5.2.7.5c.1.2,1.4,1.9,2.5,3.1-.1,0-.2,0-.4.1-.4.2-1.5.2-1.9.1-.5,0-.5-.2-.8.3-.1.2-.3.4-.4.6-.2.2-.3.4,0,.9.5.8,1.6,2.9,2,3.8.4.9.8,1.1,1.6,1.4.7.3,2,1,2.2,1.2v-.7c-.2-.2-.9-.5-1.2-.6-.3,0-.3-.2,0-.2s1.2.3,1.8.6c-.2-.7-.8-1.5-1.3-1.9-.5-.2-1.1-.2-1.3,0,0,.1,0,.3-.3.3s-.4-.2-.3-.4c0-.2.4-.3.3-.7,0-.4-.6-.5-.9-.5-.5-.6-1-1.6-1.2-2-.2-.4,0-.6,0-.7.4-.3,1.2.2,2.8.3.6,0,1.3,0,2,0,.2,1.9,1,3.7,3.6,4.3,1.3.3,2.6,1.2,3.1,2.5-5.2,0-6,1.9-6,3.9s1.9,2.1,1.9,3.7-4.4,2-5.7,2.2c-1.1.2-1.8.4-2.3,1-.5.5-1.1,1-2,2,0,0,.4,0,.8,0l.7-1c.2-.3.4-.6.5-.5.2,0,0,.3-.1.6l-.6,1c2.6.2,2.7-.8,2.7-1.2s-.6-.7-.3-.9c.4-.2.7,0,1,.3.3.3.4.6,1.1.4,0,0,5.6-2.3,6.3-2.6.6-.3.5-.5,0-.9-.4-.3-.5-.9-.5-1.5,0-1.7,1-2.2,2.8-2.2,0,.3,0,.6,0,.8,0,2.6,4,5.2,5.1,5.2s1.1-.3,1.2,1.2c0,1.2.3,2,0,3.3-.2,1.4-.6,1.6-1.4,2.1-.8.6-1.6,2.4-1.9,2.8.4.2.8.3,1.1-.6.2-.7.5-1.2.8-1.4-.3.8-.5,1.9-.7,2.3,1,.2,2.7-.8,2.7-1.5s-.6-.7-.6-1.1.3-.5.6-.5.7.3.8.5c.4-.3.7-.7.7-1.8,0-.4,0-.8,0-1.3,0,0,0,.1,0,.2.2.3.5.5.9.5.4,0,.8,0,1.1-.3.4-.3.7-.7.8-1.1,0,0,0-.2,0-.2,0-.2,0-.4-.2-.6-.2-.3-.4-.4-.8-.5-.4,0-.9,0-1.3.3-.4.2-.6.6-.7,1,0-1.4-.2-2.8-.2-3.3,0-.8,0-1.2-.2-1.3-.3-.1-.6.3-1,.3s-1.5-1.1-1.5-2.2,1.2-2.6,1.2-4.2c0-.5.3-.7.5-.3.2.5.6,1.3,1.1,1.9-.3,2,1.8,3.9,3.6,2.5-.9.1-1.5-.7-1.9-1.4.2,0,.3,0,.5,0h.3c.6.8,2.6.7,3.1-1.2-.3.4-1,.7-1.6.6.8-.6,1.2-1.5,1.2-2.5,0-5-6-5.6-6-10.1s1.5-2.8,2.5-2.8.7.1.9.3c-.4.4-.6,1-.6,1.7.2,3.6,6,3.4,6.1,5.1.6-2.6-3.7-1.8-3.9-5.3M80.6,13.4c.3-.5,0-1.4,1-1.4s.9.5,1.5.7c-.9,0-1.8.3-2.5.7M75.2,24.4c0,.3-.1.5-.3.7,0,0-.2.2-.4.2-.3,0-.6-.4-.6-.9h0c0-.4.1-.6.3-.8.1,0,.2-.2.4-.2.2,0,.3,0,.4.2.2.2.3.5.2.8M92.5,49.5c0-.3.2-.6.5-.8.3-.2.6-.2.9-.2.1,0,.3,0,.4.2h0c.1.2,0,.4,0,.5,0,.3-.3.5-.5.7-.5.3-1.1.3-1.3,0-.1-.2,0-.4,0-.5M88.9,32.8c0-.2,0-.4.2-.5.1-.1.3-.2.5-.2.3,0,.6.2.8.4.2.2.4.6.4.8,0,.1,0,.3-.2.5-.1.1-.3.2-.5.2-.3,0-.6-.2-.8-.4-.2-.3-.4-.6-.3-.8M79,21.6c.3-.9.8-2.6.8-2.6l.9.4c-.3,0-.6.3-.9.6.2,0,.6.1.8,0l-.4.9c0-.2-.3-.5-.6-.5-.2.7.3,1,.6,1.2.5.3.9.3,1.1,0,.2-.3-.2-.8-.6-.6,0-.5.2-.7.5-.7s.5.2.5.5c0-.8.3-1.4,1-1.6.3.8,0,1.3-.5,1.8.3-.1.6-.1.8,0,.2.3.1.6-.3.9,0-.5-.7-.5-.8-.2-.2.3,0,.6.6.9.6.4,1.1.2,1.4-.4-.2,0-.5,0-.8.2l.6-1.2c0,.2.1.5.4.7,0-.2.2-.7,0-1.1l1.3.8c-.5,0-.8.4-.9.6.3,0,.6,0,.8,0l-.7,1.1c0-.4,0-.7-.3-.8-.3.5-.2,1,.4,1.4.5.3.9.4,1.1,0,.2-.3-.2-.8-.6-.6,0-.5.3-.7.6-.7.2,0,.4.3.5.6.2-.8.5-1.2,1.3-1.4.2.7-.2,1.3-.9,1.7.3,0,.6,0,.7.2.2.3,0,.7-.4.9,0-.5-.6-.6-.8-.3-.2.3,0,.6.6.9.3.2.8.5,1.3,0-.2-.2-.6-.3-.8-.3l.6-.8c0,.3.2.6.4.8,0-.4.2-.8.1-1.1l.8.6s-1.2,1.3-1.9,2l-8.4-4.9ZM87.2,42.2c-.3.5-.9.6-1.3.4-.4-.2-.4-.8,0-1.3.3-.5.9-.6,1.2-.4.4.3.4.9,0,1.3M89.5,38.5c-.3.5-.9.6-1.2.4-.4-.3-.4-.8,0-1.3.3-.5.9-.6,1.3-.4.4.3.4.8,0,1.3M74.8,29.2c-.3.1-.5.3-.7.6-.3.6,0,1.5.8,1.9.4.2.9.2,1.3,0,.3,0,.6-.3.7-.6.1-.3.1-.6,0-.9-.2-.4-.5-.7-.9-.9-.4-.2-.9-.2-1.3-.1M75.3,31.2c-.5-.3-.8-.8-.6-1.2,0-.2.2-.3.4-.3.3-.1.6,0,.9,0,.3.2.5.4.6.7,0,.1,0,.3,0,.5,0,.1-.2.3-.4.3-.3,0-.6,0-.9,0M84.8,45.6c-.3.3-.5.8-.5,1.2h0c0,.5.2.9.5,1.2.2.2.5.4.8.4s.6-.1.8-.3c.3-.3.5-.7.5-1.2,0-.4-.1-.8-.3-1.1-.2-.3-.6-.5-.9-.5s-.6.1-.8.3M85.5,47.9c-.2,0-.3,0-.5-.2-.2-.2-.3-.5-.3-.8s.1-.7.3-.8c0-.1.3-.2.5-.2.4,0,.8.5.7,1.1,0,.3-.1.6-.3.8-.1.1-.3.2-.5.2M76,20.5c-.6.5-.8,1.3-.4,1.8.4.5,1.2.5,1.9,0,.3-.3.6-.6.6-1,0-.3,0-.6-.2-.8-.2-.2-.4-.4-.7-.4-.4,0-.8,0-1.2.3M75.9,21.7c0-.3.2-.6.4-.8.2-.2.5-.3.8-.2.1,0,.3,0,.4.2,0,.1.1.3,0,.4,0,.3-.2.5-.4.7-.4.3-.9.3-1.2,0,0-.1,0-.2,0-.3M87.2,49c-.3.2-.5.4-.5.8,0,.4,0,.7.3,1,.3.3.6.5,1,.5.4,0,.8,0,1.1-.2.4-.2.6-.5.7-.8.1-.7-.5-1.4-1.3-1.5-.5,0-.9,0-1.3.2M88.1,50.8c-.6-.1-1-.5-.9-1,0-.2.2-.3.3-.4.2-.2.6-.2.9-.2.5,0,.9.5.9.8h0c0,.5-.6.8-1.2.7M94.7,47.1c0,1.1.9,2,2,2s2-.9,2-2c0-1.1-1-2-2.1-2-1.1,0-2,.9-2,2M95.2,47.1c0-.8.7-1.5,1.5-1.5s1.5.7,1.5,1.5c0,.8-.7,1.5-1.5,1.5-.8,0-1.5-.7-1.5-1.5M48.7,35.5c.2-.5-.7-1.1-.8-1.8,0-.7,0-1.4-.8-2.4-.8-1-3.6-4-4.5-4.9.2,0,.7-.2,1.2.4.3.3.9.9,1.5,1.4.8-1.9,1.7-3.3,3-4.8.2-.2.3-.4.5-.5-.5.1-1.2.2-1.6.5,0-.8,0-1.5-.5-2,.2-1.2,0-2.5-2.5-4.2,1.3.3,2.1,1.5,3.1.6-.9,0-.9-2-4.2-3.6,1.2,0,2.2,2,3.7.9-1.4-.2-1.8-2.6-4.3-3.3.8,0,1.7.5,2.5-.5-.8.2-1.4-.6-2.3-.7.3-1.1.3-1.7,0-2.5-.7,0-1.3.2-1.8.6,0-.6-.7-.6-1.2-.6,0,.2.2.6-.1.7-.4,0-1.9.5-3,.9-1.1.5-2.4,1.2-2.8,1.5-.2.2-.4-.2-.6-.4-.4.3-.8.8-.5,1.2-.6,0-1.3.2-1.9.7,0,.7.6,1.4,1.5,1.9-1.5,1.5-.1,2.9-1.5,4.2,1.9,0,1.5-2.5,2.5-2.9,0,1.9-1.1,2.2-1.1,4.2s.6,2.2,0,2.9c1.6-.4,1.2-3.9,2.2-5,.2.6,0,1.2-.1,1.8-.6,1.6,0,3.9-.8,4.6,1.6-.2,1.8-2.8,3.1-3.7-1.1,2.3-2.3,7.3-4,9.7-2.7,3.7-4.3,8.2-6.9,8.2s-1.9-.7-1.9-2.1c0-4.2,7.2-7.1,7.2-11.6s-1.6-2.8-2.6-2.8-1.5.3-2.2.9c-.3-.1-.5-.2-.8-.2-2.5,0-1.9,4.6-4.1,4.5.9.5,2.4-.5,3.3-1.7-.4,3-4.6,2.2-4.3,5.7.6-2.8,7.4-2.4,7.4-6.6s-.2-.9-.6-1.2c.5-.3,1-.5,1.4-.5.8,0,1.6.6,1.6,1.8,0,3.8-7.2,6.9-7.2,11.5s.2,1.5.6,1.9c-.5.2-1,.1-1.5-.4,0,1.2,1.7,1.9,2.7,1.3.2,0,.5.2.7.2-.3.8-1.4,1.1-2,1.1,1.8,1.4,4.8-.4,4.6-2,1.4-1.1,2.3-3,3.3-4.3,0,.3-.1.6-.2.8-1,1.9-2,3.6-2.2,6-.2,2-1.3,3.9-2.7,3.9s-.8-.4-1.1-.2c-.4.4,0,.8,0,1.2,0,.6-1.1,1.2-1.1,3s.5,1.8.3,2.3c.5-.2,1.1-1,1.3-2,.5,2.4-1,2.3,0,4.4.2-.7.9-1,1.3-.7.4.3.2.5,0,.8-.3.3-.6,1.9.9,1.8-.3-.2-.3-.6.4-.8,1-.2,1.3.3,2.3.3s.9-.8,1.4-.8.5.4.3.7c.9-.2,1-.7,1-1.2s-.4-.8,0-1c.3-.2,1.3,0,.9.8.5,0,.8-.5.8-1.1s-.7-1-1.4-.8c-.1-.4-.7-.6-1.2-.6-1.2,0-1,.9-1.8.9-1.3,0-2.5-1.7-2.5-4.5s1.6-1.9,2.8-2.4c1.2-.5,3.2-1.8,4.4-3.8.9-1.6,1-3.3.8-5.4,1.6.9,1.8,2.3,1.8,3.2s-.7,1.8-1.2,2c-.5.2-.6.2-.6.4,0,.3.2.5.4.6.6.3.5.9.6,1.5.2.6.7,1.5,1.6,2.2,0-.4,0-1,0-1.8,1.3.6.2,3.1,2.7,3.1-.4-.2-.3-.9,0-1,.3,0,.6.2,1.1.8.5.7.3.6,1.5.6s.6-.4,1.2-.4.5.7.2,1.2c1-.3,1.3-1.1,1-1.9.9-.5,1.4.2,1.5.7.9-.9,0-1.9-.7-2,0-.3-.3-.7-.7-.7-.4,0-.7,0-1.2,0-.4,0-.6.6-1.1.6-1.5,0-4.6-2.8-4.6-3.9s2.9-1.9,2.9-3.8-2.4-3.2-4.4-4.8c.7-.8,2.8-1,4-.4.1-.7.6-.5.7-1.7.4,1,0,1.9.4,2.3.3-.5,1.2-.4,1.1-1.7.3.8-.3,2,.3,2.5,0-.6.5-.8.7-.8s.5.2.5.5c0,1-1.2.5-1.2,1.6s.6.6.6.9-.5.8-1,.4c.2.4.5.8,1.1.8s1.1-.4,1.3-1c.3.7,0,1.5-.4,1.5.5.3,1.8,0,1.6-1.6.7.1,1.1.6.6,1.5.6-.2,1.1-.4,1.1-1.1s-.5-.6-.3-1.2M35.1,13.7c-.7,0-.6-.6-1.8-.9.8-.2,1.9-.6,2.8-.9.2.8-.1,1.7-1,1.8M39.8,18.6c-.8.4-1.5-.4-1.7-.9-.2-.5-.3-.9-.1-1.1.4-.4.5-.6.3-1.1-.2-.5-.8-.3-1.4-.1.3-.5.3-.9,0-.8-.5,0-.5.8-.7.7-.2,0-.1-.5-.1-.7,0-.3.2-.4.5-.5l2.5-.9c.3,0,.5-.2.8,0,.2.2.5.4.4.6-.1.2-.6-.3-1,0-.3.2,0,.5.5.6-.5.3-1.1.5-.9,1.1.2.5.4.6.9.6s.5.4.7.9c.2.5.3,1.3-.6,1.7M39.9,11.8c-.6.5-1.5,0-1.9-.6.9-.4,1.9-.8,2.6-1.2-.6,1-.2,1.5-.7,1.9M38.4,5.6c.2.3.3.4.3.6-.1,0-.3-.2-.5-.5v1.1c.2-.2.3-.3.5-.4,0,.7-.3,1-.6,1.1-.2,0-.5-.1-.5-.4,0,0,0,0,0,0,0-.3.2-.5.5-.2,0-.6-.5-.6-.7-.4.3-.6.2-1.1-.4-1.4-.4.6-.2,1,.2,1.5-.5-.2-.8.1-.5.6,0-.4.5-.3.5,0,0,.3-.2.6-.7.8-.7.2-.9-.2-1.1-.6.2,0,.5,0,.9.2l-.3-1.1c-.2.4-.4.5-.6.7,0-.3.2-.9.2-.9l-1.3.5s.6.3.8.5c-.3,0-.5.2-.9,0l.5,1c.1-.5.3-.7.5-.8.1.4.3.8-.3,1.2-.5.2-.9.2-1.1,0-.2-.3,0-.6.4-.4,0-.6-.6-.6-.8-.2,0-.6-.2-1-.8-1.2-.2.6,0,1,.7,1.3-.3,0-.7.3-.2.7,0-.4.3-.4.5-.2.1.2.1.5-.2.7-.2.1-.6.1-1.1-.4.2,0,.3,0,.5,0l-.7-.9c0,.3,0,.5,0,.7-.2-.2-.2-.3-.3-.6l-.5.5c.5.3,1.1.8,1.8,1.8.7-.5,2.1-1.1,2.9-1.4.8-.3,2.2-.8,3-1-.2-1.2,0-1.9,0-2.5h-.7ZM33,4.1l.4.8.5-.5h0c0,.3,0,.8,0,1s.3.6.6.6c.3,0,.6-.3.6-.6,0-.2-.2-.4-.3-.5-.2-.2-.5-.4-.7-.6t0,0h.8c0,0-.3-.8-.3-.8l-.6.5s0,0,0,0v-.8s-.8.3-.8.3l.5.6s0,0,0,0h-.7ZM36,4.8c.2-.2.2-.5,0-.7-.2-.2-.5-.2-.7,0-.2.2-.2.5,0,.7.2.2.5.2.7,0M37,4c.2-.2.2-.5,0-.7-.2-.2-.5-.2-.7,0-.2.2-.2.5,0,.7.2.2.5.2.7,0M38.3,4.2c.2-.2.2-.5,0-.6-.1-.2-.4-.2-.6,0,0,0,0,0,0,0-.2.2-.2.5,0,.6.2.2.5.2.7,0M38.4,5.2c.2.2.5.2.7,0,.2-.2.2-.5,0-.6-.2-.2-.4-.2-.6,0,0,0,0,0,0,0-.2.2-.2.5,0,.7M33.1,6.1c.2,0,.4-.2.5-.5,0-.3-.2-.5-.5-.5-.3,0-.5.2-.5.5,0,0,0,0,0,0,0,.2.2.5.5.5M31.8,6.2c.3,0,.5-.2.5-.5,0,0,0,0,0,0,0-.2-.2-.5-.5-.5-.2,0-.4.2-.5.5,0,.3.2.5.5.5M31.5,6.7c0-.3-.2-.5-.5-.5-.3,0-.5.2-.5.5s.2.5.5.5.5-.2.5-.5M31.7,8c0-.2-.2-.5-.5-.5-.2,0-.4.2-.5.5,0,.3.2.5.5.5.3,0,.5-.2.5-.5,0,0,0,0,0,0M63.1,41.7c0,0,0,0,.1.1.8.2,1.6-.4,2.1-.2-.6-.2-1,.2-1.5,0,.3,0,.7,0,.7-.2-.3.2-1-.1-1.3,0,0,0,0,0,0,0-.2,0-.4.2-.4.3,0,.5,1.9,0,1.9.3s-.4.2-.9.2-1-.2-1.9,0c0-.2.2-.4.2-.5,0,0,.1,0,.2-.2,0,0-.1,0-.2,0,0,0,0,0,0,0h0c0-.1,0-.2-.2-.2,0,0-.1,0-.2,0,0,0,0,0,0,0,0,0,0,0-.1,0,0,0,0,0-.1,0,0,0,0,.1,0,.2,0,0-.2.2-.2.2,0,0,0,0,0,0,0,0,0,.2-.1.2,0,0,0,0,0,0,0,.2,0,.3,0,.5-.1-.1-.3-.4-.4-.5,0,0,0-.1,0-.2s0-.2,0-.3,0,0,0,0c0,0,0,0-.2,0,0,0,0,0,0,0t0,0s0,0,0,0h0c0,0,0,0,0,0,0,0,0-.2,0-.2h0c0,0,0-.1-.2,0h0c0,0,0,0,0,.1,0,0,0,0,.2,0t0,0h0c-.1,0-.2,0-.2,0h0c0,0,0,.1,0,.2,0,0,0,0,0,0h0s0,0,0,0c0,0,0,0,0,0s0,0,0,0h0s0,0,0,0c0,0,0,.2,0,.2h0c0,.2-.2.1-.2,0-.1.2,0,.3.2.2t0,0s0,0,0,0c0,0,0,0,0,0h0c0,0,0,.1,0,.1,0,0,0,0,0,0,0,0,0,.2.2.4,0,.1.1.2.2.2,0,.1.1.2,0,.2s-.3,0-.4,0c0,0-.2,0-.2,0h0s0,0,0,0c0,0-.2,0-.2,0,0,0,0,0,0-.1,0,0,0,0,0,0h0c0,0-.1,0-.2,0,0,0,0,0,.1,0,0,0,0,0,0,0,0,0,0,0,.2.2,0,0,0,0,0,0,0,0,0,0,0,0,0,0,0-.1-.2,0h0c0,0-.2,0-.1.2,0,0,0,0,0,0h0c0,.2,0,.2.2,0t0,0c0,0-.2.1,0,.2h0c0,.1,0,.2.1.2,0,0,0,0,0-.2,0,0,0,0,0,0,0,0,0-.1,0-.2h0c0,0,0,.2.1.2,0,0,.1,0,.1-.2,0,0,0,0,0,0,0,0,0,0,0,0,0,0,0,0,0,.2,0,0,.1,0,.2-.2,0,0,0,0,0,0h0s.1,0,.2,0h0c0,.1,0,0,0,0s0,0,0,.2c0-.2.2-.2.3-.2,0,0,0,0,0,0,0,0,.2,0,.2-.2s0-.2.1-.4h0c.2,0,.3-.2.5-.2,0,0,0,.2,0,.3s.2.2.2.2h0c0,0-.1,0-.2,0-.2.1-.2-.2-.4-.2,0,0,0,0,0,0,0,0-.2,0-.2.2,0,0,0,0,.1,0h0c0,0,0,0,0,0s0,0,0,0c0,0,0,0,0,0,0,0-.2,0-.2.2h0c0,0,0,.2.1.1,0,0,0,0,0,0h0s0,0,0,0h0c0,.2,0,.2.2.2,0,0,0,0,0,0,0,0,0,0,0,0h0c0,0,0,0,0,0,0,0,0,0,.2,0,.1,0,0-.2.1-.2,0,0,0,0,0,0,0,0,.2,0,.2,0,0,0,0-.2,0-.2,0,0,0-.4-.2-.6.1,0,.5,0,.6,0,.1,0,.3.1.3.2,0,0,0,0,0,0-.1,0,0,0-.2.1,0,0,0,0,0-.1h0c0,0-.2,0-.2,0,0,0,0,0,.1,0h0c0,0,0,0,0,0h0c0,0-.2,0-.2,0,0,0,0,0,0,0,0,0,0,0,0,.1t0,0h0c0,0,.1,0,.2,0,0,0-.1,0,0,.1t0,0s0,.1,0,.2c0,0,0,0,0,0,0,0,0,0,0,0,.1,0,0-.2,0-.2,0,0,.1,0,.2,0,0,0,0,0,0,0t0,0s0,0,0,0c0,0,0-.1,0-.2,0,0,0,0,0,0,0,0,0,0,.1,0,0,0-.2,0,0,0,.1,0,.2-.2,0-.2,0-.1-.3-.1-.3-.3h.2c.6,0,1.1-.2,1-.4,0-.4-1.9,0-1.9-.3s.1-.2.3-.2M61.7,41.8s.2,0,.2,0c0,0,0,0-.1,0s0,0,0-.1M61.6,41.7c0,0,0,0-.2,0,0,0,0,0,0-.2,0,0,.2,0,.2,0M61.4,42.2s0,0,0,0,0,0,0,0c0,0,0,0,0,0,0,0,0,0,0,0,0,0,0,0,0,0,0,0,0,0,0,0h.2c0,0,0,.1,0,.1,0,0,0,0,0,0,0,0,0,0,0,0,0,0,0,0,0,0,0,0,0,0-.1,0,0,0,0,0,0,0,0,0,0,0,0,0,0,0,0,.1-.1,0,0,0,0,0,0-.1M63.7,39c0,0,0,0,.1.1.8.2,1.6-.4,2.1-.2-.6-.2-.9.1-1.5,0,.3,0,.7,0,.7-.2-.3.2-1,0-1.3,0h0c-.4,0-.8,0-.8.3,0,.6,1.5.2,2.1.2s.4,0,.4.2c0,.2-.6.2-.8.2-.4,0-1.7-.2-2.5,0,0-.1.2-.3.1-.4,0,0,.1,0,.1-.2,0,0,0,0-.2,0,0,0,0,0,0,0h0c0-.1-.1-.2-.2-.2,0,0-.2,0-.2,0h0s0,0,0,0c0,0,0,0-.2,0,0,0,0,.1,0,.2,0,0-.2.2-.2.2,0,0,0,0,0,0,0,0,0,.2-.2.2,0,0,0,0,0,0,0,0,0,.2,0,.2h0s0,0,0,0c-.1,0-.2,0-.3,0-.1,0-.1-.1-.1-.2s0-.2,0-.3,0,0,0,0c0,0,0-.1-.2-.1,0,0,0,0,0,.1t0,0s0,0,0,0h0c0,0,0,0,0,0,0,0,0-.2-.1-.2h0c0,0,0-.2-.2,0,0,0,0,0,0,0h0c0,.2,0,.2.1.2s0,0,0,0h0c-.2,0-.2,0-.2,0,0,0,0,0,0,0,0,0,0,0,0,.2,0,0,0,0,0,0h0s0,0,0,0h0s0,0,0,0c0,0,0,.2,0,.2h0c0,.2-.2.1-.2,0-.1.2,0,.3.2.2h0s0,0,0,0c0,0,0,0,0,0,0,0,0,0,0,.1,0,0,0,0,0,0s0,0,.2,0c0,0,0,0,0,0h.1c0,0,0,.3,0,.3s-.3,0-.3,0c-.1,0-.4.2-.5,0,0,0,0,0,0-.1,0,0,0,0,0,0h0s-.1,0-.2,0c0,0,0,0,.1,0,0,0,0,0,0,0,0,0,0,0,.2.1,0,0,0,0,0,0,0,0,0,0,0,0,0,0,0-.1-.2,0,0,0,0,0,0,0,0,0-.2,0-.2.2,0,0,0,0,0,0,0,0,0,0,0,0,0,0,0,.2.2,0h0c0,0-.2.2,0,.2,0,0,0,0,0,0h0c0,.1,0,.2.1.2,0,0,0,0,0-.1h0c0,0,0-.2.1-.2h0c0,0,0,.1.1.1s.2,0,.2-.2c0,0,0,0,0,.1,0,0,0,0,0,0,0,0,0,.1,0,.2,0,0,.2,0,.2-.2t0,0h.2s0,0,0,0h0c0,0,0,0,0,0,0,0,0,0,0,.2,0-.3.2-.2.4-.3,0,0,0,0,0,0,.2.1.3-.1.4-.2h0s0,0,0,0c.2,0,.1-.2.2-.1.5,0,.1-.4.9-.3,0,0,.2,0,.2,0,0,.1,0,.3,0,.4,0,0,.2,0,.2,0,0,0,0,0,0,0,0,0-.1,0-.2,0-.2,0-.2-.3-.4-.2,0,0,0,0,0,0,0,0-.2,0-.2.2,0,0,0,0,.1,0h0c0,0,0,0,0,0s0,0,0,0t0,0c0,0-.2,0-.2.2,0,0,0,0,0,0,0,0,0,.1.2,0,0,0,0,0,0,0,0,0,0,0,0,0h0c0,0,0,0,0,0,0,0,0,0,0,0h0s0,0,0,0c0,0,0,.2.2,0,0,0,0,0,0,0,0,0,0,0,0,0h0c0,0,0,0,0,0h0s0,0,0,0c0,0,0,0,.1,0,.1,0,0-.2.1-.2h0c0,0,.2,0,.2,0,0,0,0-.2,0-.3,0,0,0-.1,0-.2.1,0,.2,0,.4,0,.2,0,.4,0,.5,0,.2,0,.3,0,.3,0,0,0,0,0,0,0,0,.1,0,.2,0,.2,0,0-.2,0-.2,0s0,0,0,0c0,0-.2,0-.2.2,0,0,0,0,.1,0h0c0,.1,0,.1.2,0h0c0,0-.2.2-.1.2h0c0,0,0,.1,0,.1,0,0,0,0,0-.1h0c0,0,0-.1.1-.2,0,0,0,0,0,0,0,0,0,.2,0,.2h0c0,0,0,0,.2,0,0,0,0,0,0,0h0c0-.2,0-.2,0-.3,0,0,.2,0,.2-.2,0,0,0,0,0,0h0s0,0,.1,0c-.1,0,0,0,0-.1s0,0,0,0c0,0,0,0,0-.1,0,0-.2,0-.2,0,0,0,0,0,0,0-.2,0-.4,0-.8,0t0,0c.3,0,1,0,1-.3s0-.3-.6-.3-1.9.2-1.9,0,.3-.2.6-.2M61.8,39c0,0,0,0-.2,0,0,0,0,0,0-.2,0,0,.2.1.2.1M61.9,39.3s0,0,0,0,0,0,0,0c0,0,0,0,0,0,0,0,0,0,0,0,0,0,0,0,0,0,0,0,0,0-.2,0,0,0,0,0,0-.2,0,0,0,0,0,0s0,0,0,0c0,0,0,0,0,0,0,0,0,0,0,0,0,0,0,0,0,0s0,0,0,0h.2c0,.1,0,.1,0,.2,0,0,0,0,0,0M62,39.2c0,0-.1-.1,0-.2,0,0,.2,0,.2,0,0,0,0,0-.1,0M66.4,37.5s0,0,0,0c0,0,0-.1,0-.2,0,0-.2.1-.2,0s0,0-.1,0c-.2,0-.4,0-.7,0t0,0c.3,0,1,0,1-.3s-.2-.3-.8-.3-2.5.2-2.5-.1.6-.1,1.1-.1c0,0,0,0,.1,0,.8.2,1.7-.4,2.2-.2-.6-.2-1,.2-1.6,0,.4,0,.7,0,.8-.2-.3.2-1-.1-1.4,0t0,0c-.6,0-1.3,0-1.3.3,0,.6,2.1.3,2.6.3s.6,0,.6.2-.5.2-.8.2c-.5,0-2.5-.3-3.3,0,0-.2.2-.3.1-.5,0,0,.2,0,.2-.2,0,0-.1,0-.2,0,0,0,0,0,0-.1,0,0,0,0,0,0,0,0-.1,0-.2-.1,0,0-.2,0-.2,0h0c0,0-.1,0-.1,0,0,0,0,0-.1,0,0,0,0,.1,0,.2,0,0-.2.2-.2.2q0,0,0,0c0,0,0,.2-.2.2,0,0,0,0,0,0v.2h-.1s0,0,0,0c0,0,0,0,0,0,0,0-.2-.2-.3-.2-.1,0-.1-.1-.1-.2s0-.2,0-.3,0,0,0-.1c0,0-.1,0-.2,0,0,0,0,0,0,0,0,0,0,0,0,0,0,0,0,0,0,0t0,0h0q0,0,0,0c0,0,0-.2-.1-.2h0c0,0,0-.1-.2,0,0,0,0,0,0,0,0,0,0,0,0,0,0,0,0,0,.2,0h0s0,0,0,0h0c-.1,0-.2,0-.2,0h0c0,0,0,.2,0,.2,0,0,0,0,0,0s0,0,0,0c0,0,0,0,0,0h0c0,.1,0,.2,0,.2,0,0,0,0,0,0,0,.2-.2.1-.2,0-.2.2,0,.3.2.2h0s0,0,0,0c0,0,0,0,0,0,0,0,0,.1,0,.1,0,0,0,0,0,0s.2.2.4.4c0,0,0,0,.2,0,0,0,0,0,0,.1h0c0,0,.1.2,0,.2s-.3,0-.4,0c0,0-.4.2-.5,0,0,0,0,0,0-.2,0,0,0,0,0,0h0c0,0-.1,0-.2,0,0,0,0,0,.1,0,0,0,0,0,0,0,0,0,0,0,.2.2,0,0,0,0,0,0,0,0,0,0,0,0,0,0,0-.1-.2,0,0,0,0,0,0,0,0,0-.2,0-.2.2,0,0,0,0,0,0,0,0,0,0,0,0,0,0,0,.2.2,0,0,0-.2.2,0,.2,0,0,0,0,0,0,0,.1,0,.2.2.2,0,0,0,0,0-.2h0c0,0,0-.1,0-.2,0,0,0,0,0,0,0,0,0,.2.1.1.1,0,.2,0,.2-.2,0,0,0,0,0,.1,0,0,0,0,0,0,0,0,0,.1,0,.2,0,0,.2,0,.2-.2,0,0,0,0,0,0,0,0,.1,0,.2,0h0c0,0,0,0,0,0s0,0,0,.2c0-.3.2-.2.3-.3t0,0h0c0,.1.3,0,.3-.1s0,0,.2,0c.2,0,.2-.1.2-.1,1,.2.4-.4,1.6-.3,0,0,0,0,.1,0,0,0,0,.3,0,.4,0,0,.2,0,.2,0h0c0,0-.2,0-.2,0-.2.1-.2-.3-.4-.2,0,0,0,0,0,0,0,0-.2,0-.2.2,0,0,0,0,.1,0h0c0,0,0,.1,0,.1s0,0,0,0t0,0c0,0-.2,0-.2.2h0c0,.1,0,.2.2.2,0,0,0,0,0,0h0s0,0,0,0h0,0c0,0,0,0,0,.1,0,0,0,.2.2,0,0,0,0,0,0,0h0c0,0,0,0,0,0,0,0,0,0,0,0,0,0,0,0,.2,0,.1,0,0-.2.1-.2h0c0,0,.2,0,.3,0,0,0,0-.2,0-.3,0,0,0-.1,0-.2,0,0,.2,0,.4,0,.3,0,.4,0,.5-.1.2,0,.3,0,.3,0s0,0,0,0c0,.2,0,.2,0,.2,0,0-.2,0-.2,0s0,0,0,0c0,0-.2,0-.2.2,0,0,0,0,.1,0h0c0,.1.1.1.2,0,0,0,0,0,0,0,0,0-.2.1,0,.2h0c0,0,0,.1,0,.2,0,0,0,0,0-.1h0c0,0,0-.1.1-.2,0,0,0,.2,0,.2,0,0,0,0,0,0,0,0,0,0,.2,0h0c0,0,0-.1,0-.2,0-.2,0-.2,0-.2s.2,0,.2-.2c0,0,0,0,0,0h0c0,0,0,0,.1,0-.1,0,0,0,0-.2M62,36.4s.2,0,.2,0c-.1,0,0,0-.2,0,0,0,0,0,0-.2M61.9,36.3c0,0,0,.1-.2,0,0,0,0,0,0-.2,0,0,.2,0,.2,0M61.7,36.8s0,0,0,0c0,0,0,0,0,0,0,0,0,0,0,0,0,0,0,0,0,0,0,0,0,0,0,0,0,0,0,0,0,0h.2c0,0,0,.1,0,.2,0,0,0,0,0,0,0,0,0,0,0,0,0,0,0,0,0,0,0,0,0,0,0,0q0,0,0,0h0c0,.2,0,.2-.2.2,0,0,0-.1,0-.2h0ZM57.7,32.8c0-.2-.2-.3-.8-.3s-2.5.2-2.5-.1.6-.1,1.1-.1c0,0,0,0,.1,0,.8.2,1.6-.3,2.2,0-.5-.4-1,0-1.6,0,.3,0,.7,0,.7-.2-.3.2-1-.1-1.4,0,0,0,0,0,0,0-.6,0-1.3,0-1.3.2,0,.6,2.1.3,2.6.3s.6,0,.6.2-.5.2-.8.2c-.5,0-2.5-.2-3.3,0,0-.2.2-.3.2-.5,0,0,.2,0,.2-.2,0,0-.1,0-.2,0,0,0,0,0,0-.1,0,0,0,0,0,0,0,0-.1,0-.2-.1,0,0-.2,0-.2,0s0,0,0,0c0,0-.1,0-.1,0,0,0,0,0-.1,0,0,0,0,.1,0,.2,0,0-.2.2-.2.2,0,0,0,0,0,0,0,.1,0,.2-.2.3h0c0,.1,0,.2,0,.2h0s-.2,0-.2,0c-.1,0-.2-.2-.3-.3-.1,0-.1-.1-.1-.3s0-.2,0-.3,0,0,0,0c0,0,0-.1-.2-.1,0,0,0,0,0,.1,0,0,0,0,0,0,0,0,0,0,0,.1h0q0,0,0,0c0,0,0-.2-.1-.2h0c0,0,0-.1-.2,0,0,0,0,0,0,0,0,0,0,0,0,0,0,0,0,0,.2,0h0s0,0,0,0h0c-.1,0-.2,0-.2,0h0c0,0,0,.2,0,.2,0,0,0,0,0,0h0s0,0,0,0c0,0,0,0,0,0t0,0h0c0,.1,0,.2,0,.2t0,0c0,.2-.2.2-.2,0-.1.2.1.3.3.2h0s0,0,0,0c0,0,0,0,0,0h0c0,0,0,.1,0,.1,0,0,0,0,0,0s.2.2.4.4c0,0,.1,0,.2,0t0,0c0,.1,0,.2,0,.2s-.4,0-.5,0c-.1,0-.4.2-.5,0,0,0,0,0,0-.2,0,0,0,0,0,0h0c0,0-.1,0-.2,0,0,0,0,0,.1,0,0,0,0,0,0,0,0,0,0,0,.2.2h0c0,0,0,0,0,0,0,0,0-.2-.2,0,0,0,0,0,0,0h0c0,0-.2,0-.2.2,0,0,0,0,0,0,0,0,0,0,0,0,0,0,0,.2.2,0h0c0,0-.2.2,0,.2,0,0,0,0,0,0,0,.1,0,.2.2.2,0,0,0,0,0-.2,0,0,0,0,0,0,0,0,0-.1,0-.2,0,0,0,0,0,0,0,0,0,.2.2.1,0,0,.2,0,.1-.2h0s0,0,0,.1c0,0,0,0,0,0,0,0,0,.1,0,.2,0,0,.2,0,.2-.2,0,0,0,0,0,0t0,0s0,0,.2,0h0c0,.1,0,0,0,0s0,.1,0,.2c0-.3.3-.2.5-.2,0,0,0,0,0,0,0,0,0,0,0,0,0,0,.2,0,.2,0,0,0,0,0,0,0h.3v-.2s0,0,0,0c.2,0,.2-.1.2,0,1,.1.4-.5,1.6-.3,0,0,0,0,.1,0,0,.1,0,.3,0,.3,0,0,.2,0,.2,0h0c0,0-.2,0-.2,0-.2.1-.2-.3-.4-.2,0,0,0,0,0,0,0,0-.2,0-.2.2,0,0,0,0,.1,0h0c0,0,0,.1,0,.1s0,0,0,0h0c0,0-.2,0-.2.2,0,0,0,0,0,0,0,0,0,.1.2,0,0,0,0,0,0,0h0s0,0,0,0c0,0,0,0,0,0,0,0,0,0,0,0,0,0,0,.2.2,0,0,0,0,0,0,0h0c0,0,.1,0,.1,0,0,0,0,0,.2,0,.1,0,0-.2.1-.2h0c0,0,.2,0,.3,0,0,0,0-.2,0-.3,0,0,0,0,0-.2,0,0,.2,0,.4,0,.3,0,.4,0,.5-.1.2,0,.3,0,.3,0,0,0,0,0,0,0,0,.2,0,.2,0,.2,0,0-.2,0-.2,0,0,0,0,0,0,0,0,0-.2,0-.2.2,0,0,0,0,.1,0h0c0,.1.1.1.2,0,0,0,0,0,0,0,0,0-.2.1,0,.2,0,0,0,0,0,0,0,0,0,.1,0,.1t0,0h0c0,0,0-.1,0-.2h0c0,0,0,.2,0,.2,0,0,0,0,0,0,0,0,0,0,.2,0,0,0,0,0,0,0,0,0,0,0,0,0,0-.2,0-.2,0-.2s.2,0,.2-.2,0,0,0,0c0,0,0,0,0,0,0,0,0,0,0-.2t0,0s0,0,0-.2c0,0-.2,0-.2,0,0,0,0,0-.1,0-.2,0-.3,0-.7,0,.3,0,1,0,1-.3M53.2,32.3s.2,0,.2,0c-.1,0,0,0-.2,0,0,0,0,0,0-.2M53.1,32.2c0,0,0,.1-.2,0,0,0,0,0,0-.2,0,0,.2,0,.2,0M52.9,32.7s0,0,0,0,0,0,0,0c0,0,0,0,0-.1,0,0,0,0,0,0,0,0,0,0,0,0,0,0,0,0,0,0t0,0h.2c0,0,0,.1,0,.1,0,0,0,0,0,0,0,0,0,0,0,0h0c0,0,0,0,0,0,0,0,0,0,0,0h0c0,.2,0,.2-.2.2,0,0,0-.1,0-.2M58,30c0-.2-.2-.3-.9-.3s-2.1.2-2.1-.1.3-.2.6-.2c0,0,0,0,.2,0,.8.2,1.8-.2,2.3,0-.6-.5-1.1,0-1.7-.1.4,0,.5-.1.5-.2-.3.2-.8,0-1.2.1,0,0,0,0,0,0-.5,0-.8,0-.8.3,0,.6,1.7.3,2.2.3s.7,0,.7.2-.5.2-.8.2c-.5,0-1.9-.2-2.7,0,0-.2.2-.3.2-.4,0,0,.1-.1.1-.2,0,0,0,0-.2,0,0,0,0,0,0-.1,0,0,0,0,0,0,0,0-.1,0-.2-.1,0,0-.2,0-.2,0,0,0,0,0,0,0,0,0,0,0-.1,0,0,0,0,0-.2,0,0,0,0,.1,0,.2,0,0-.2.2-.2.2,0,0,0,0,0,0,0,0,0,.2-.2.2,0,0,0,0,0,0v.2h-.2s0,0,0,0h0s0,0,0,0h0c0,0-.2-.2-.3-.3-.2,0-.2-.2-.1-.3,0-.1,0-.2,0-.3,0,0,0,0,0,0,0,0-.1-.1-.2-.1,0,0,0,0,0,.1s0,0,0,0c0,0,0,0,0,.1h0s0,0,0,0t0,0c0,0,0-.2-.1-.2s0,0,0,0h0c0-.1,0-.2-.2,0,0,0,0,0,0,0,0,0,0,0,0,0,0,0,0,.1.1.1s0,0,0,0h0c0,0,0,0,0,0-.2,0-.2,0-.2,0h0c0,0,0,.2,0,.2,0,0,0,0,0,0h0s0,0,0,0h0s0,0,0,0c0,0,0,.2,0,.2t0,0c0,.2-.3.2-.2,0-.1.2,0,.4.3.2h0q0,0,0,0s0,0,0,0h0c0,0,0,.1,0,.2,0,0,0,0,0,0s0,.2.2.2c.1,0,.2.2.3,0,0,.1.1.3,0,.3s-.4,0-.5,0c-.1,0-.4.2-.5,0,0,0,0,0,0-.2,0,0,0,0,0,0h0c0,0-.1,0-.2,0,0,0,0,0,.1,0h0c0,0,0,.1.2.2,0,0,0,0,0,0s0,0,0,0c0,0,0-.1-.2,0,0,0,0,0,0,0,0,0-.2,0-.2.2,0,0,0,0,.1,0t0,0c0,0,0,.2.2,0t0,0c0,0-.2.2,0,.2h0c0,.1,0,.2.2.2,0,0,0,0,0-.2h0c0,0,0-.2.1-.2,0,0,0,0,0,0,0,0,0,.2.2.2.1,0,.2-.1.2-.2h0c0,0,0,0,0,0,0,0,0,0,0,0,0,0,0,.2,0,.2,0,0,.2,0,.2-.2,0,0,0,0,0,0,0,0,.1,0,.2,0,0,0,0,0,0,0h0c0,0,0,0,0,0s0,0,0,.2c0-.3.2-.2.4-.3,0,0,0,0,0,0,0,0,0,0,0,0,.2,0,.5-.2.5-.4,0,0,.2,0,.2,0,.6,0,.2-.5,1.1-.3,0,0,.2,0,.2-.1,0,.1,0,.4,0,.4,0,0,.2,0,.2,0t0,0c0,0-.1,0-.2,0-.2.1-.2-.3-.4-.2,0,0,0,0,0,0,0,0-.2,0-.2.2,0,0,0,0,.1,0h0c0,0,0,.1,0,.1s0,0,0,0t0,0c0,0-.2,0-.2.1,0,0,0,0,0,0,0,0,0,.1.2,0,0,0,0,0,0,0h0s0,0,0,0c0,0,0,0,0,0,0,0,0,0,0,0h0c0,.2,0,.2.2.2,0,0,0,0-.1,0,0,0,0,0,0,0,0,0,0,0,0,0s0,0,0,0h0c0,0,0,.1.2,0,.1,0,0-.2.1-.2h0c0,0,.3,0,.3,0,0,0,0-.2-.1-.3,0,0,0-.1,0-.2.1,0,.3,0,.4,0,.3,0,.4,0,.5-.1.2,0,.3,0,.4,0s0,0,0,0c0,.2,0,.2,0,.2,0,0-.2,0-.2,0s0,0,0,0c0,0-.2,0-.2.2,0,0,0,0,.1,0h0c0,.1.2.1.2,0,0,0,0,0,0,0,0,0-.2.2,0,.2,0,0,0,0,0,0,0,0,0,.1,0,.1,0,0,0,0,0-.1h0c0,0,0-.1,0-.2t0,0c0,0,0,.2,0,.2h0c0,0,0,.1.2,0,0,0,0,0,0,0s0,0,0,0c0-.2,0-.2,0-.2s.2,0,.2-.2,0,0,0,0c0,0,0,0,.1,0-.1,0,0,0,0-.2h0c0,0,0-.1,0-.2,0,0-.2,0-.2,0,0,0,0,0,0,0-.2,0-.3,0-.7,0,.4,0,1-.1,1-.4M53,30.3h0s0,0,0,0M54,29.4s.2,0,.2.1c-.1,0,0,0-.2,0s0,0,0-.2M53.9,29.3c0,0,0,0-.2,0,0,0,0,0,0-.2,0,0,.2.1.2.1M53.6,29.9c0,0,0,0,0,0q0,0,0,0c0,0,0,0,0-.1,0,0,0,0,0,0,0,0,0,0,0,0,0,0,0,0,0,0h.2c0,.1,0,.1,0,.2s0,0,0,0c0,0,0,0,0,0,0,0,0,0,0,0,0,0,0,0-.1,0s0,0,0,0c0,0,0,0,0,.1,0,0,0,.1-.2,0,0,0,0-.1,0-.2h0ZM57.1,27.5c.7,0,1-.2,1-.4,0-.7-1.8-.3-1.8-.7s0-.1.1-.2h0c.9,0,.9-.7,1.6-.9-.8,0-.9.5-1.2.5.2,0,.2-.3.2-.4-.2.2-.5.2-.7.5,0,0,0,0,0,.1-.1,0-.2.2-.2.3,0,.7,1.9.2,1.9.7s-.3.3-.8.3-.7-.3-1.4,0c0-.1.2-.3.2-.4,0,0,.1,0,.1-.2,0,0,0,0-.2,0,0,0,0,0,0,0,0,0,0,0,0,0,0,0,0,0-.2-.1,0,0-.2,0-.2,0,0,0,0,0,0,0,0,0,0,0,0,0,0,0,0,0-.1,0,0,0,0,0,0,.2,0,0-.1.2-.2.2q0,0,0,0c0,.1,0,.2-.2.2h0c0,.2,0,.3,0,.5h-.1c-.1-.2-.1-.2,0-.3,0,0,0-.2,0-.2s0,0,0,0c0,0,0,0-.1,0,0,0,0,0,0,0h0c0,0,0,.1,0,.2h0c0,0,0,0,0,0,0,0,0-.2,0-.2h0c0,0,0-.1-.2,0,0,0,0,0,0,0,0,0,0,0,0,0,0,0,0,.1.1.1h0q0,0,0,0c-.1,0-.2,0-.2,0h0c0,0,0,.2,0,.2,0,0,0,0,0,0,0,0,0,0,0,0,0,0,0,0,0,0h0s0,0,0,0c0,0,0,.1,0,.2h0c0,.2-.2.2-.2,0-.2.2,0,.3.2.2h0s0,0,0,0c0,0,0,0,0,0,0,0,0,0,0,.1,0,0,0,0,0,0s0,.1.2.2c-.1,0-.3,0-.4.1,0,0-.2,0-.3,0-.1,0-.4.1-.5,0,0,0,0,0,0-.1,0,0,0,0,0,0h0c0,0-.2,0-.2,0,0,0,0,0,.1,0,0,0,0,0,0,0,0,0,0,0,.2.1h0c0,0,0,0,0,0,0,0,0-.1-.2,0,0,0,0,0,0,0,0,0-.2,0-.1.2,0,0,0,0,0,0,0,0,0,0,0,0,0,0,0,.2.2,0h0c0,0-.2.2,0,.2,0,0,0,0,0,0,0,0,0,.2.1.2,0,0,0,0,0-.1h0c0,0,0-.1,0-.2h0s0,.1.1.1.1,0,.1-.1h0s0,0,0,0h0s0,0,0,0c0,0,.1,0,.2-.2h0c0,0,0,0,.2,0h0c0,0,0,0,0,0,0,0,0,0,0,.2,0-.2.2-.2.3-.2,0,0,0,0,0,0,0,0,0,0,0,0,0,0,.2,0,.2-.2h0c0,0,.2,0,.2-.2,0,0,0,0,0,.1.2,0,.3-.2.4-.2.3,0-.2-.3.5-.3,0,0,.2,0,.2,0,0,0,0,.3,0,.3,0,0,.2,0,.2,0h0c0,0-.1,0-.2,0-.2.1-.2-.2-.3-.2,0,0,0,0,0,0,0,0-.2,0-.2.2,0,0,0,0,.1,0h0c0,0,0,.1,0,.1s0,0,0,0t0,0c0,0-.2,0-.2.1,0,0,0,0,0,0,0,0,0,.1.2,0,0,0,0,0,0,0h0s0,0,0,0h0c0,.2,0,.3.2.2,0,0,0,0-.1,0,0,0,0,0,0,0h0c0,0,0,0,0,0t0,0h0c0,0,0,.1.1,0,.1,0,0-.2.1-.2h0c0,0,.2,0,.3,0,0,0,0-.2,0-.3,0,0,0,0,0-.2,0,0,.2,0,.3,0,.3,0,0,0,.2-.1,0,0,.2,0,.3,0s0,0,0,0c0,.1,0,.2,0,.2,0,0-.2,0-.2,0s0,0,0,0c0,0-.1,0-.1.1,0,0,0,0,.1,0h0c0,.1,0,.2.2,0,0,0,0,0,0,0,0,0-.2.1,0,.2,0,0,0,0,0,0,0,0,0,.1,0,.1,0,0,0,0,0-.1h0c0,0,0,0,0-.1t0,0c0,0,0,.2,0,.2h0c0,0,0,0,.2,0,0,0,0,0,0,0h0c0-.2,0-.2,0-.2s.1,0,.1-.2c0,0,0,0,0,0h0s0,0,0,0c0,0,0,0,0-.1h0c0,0,0,0,0-.2,0,0-.2,0-.2,0,0,0,0,0,0,0-.2,0-.3,0-.6,0t0,0M55.1,26.8h0,0M55.6,26.7s.2,0,.2,0c0,0,0,0-.1,0s0,0,0-.1M55.4,26.6c0,0,0,0-.1,0,0,0,0,0,0-.2,0,0,.2,0,.2,0M55.2,27.1s0,0,0,0,0,0,0,0c0,0,0,0,0,0t0,0s0,0,0,0c0,0,0,0,0,0h.2c0,0,0,.1,0,.2h0c0,0,0,0,0,0s0,0,0,0c0,0,0,0,0,0,0,0,0,0,0,0,0,0,0,0,0,0,0,0,0,.1-.2,0,0,0,0,0,0-.1M57.7,37.3h-.2c0-.7-.3-1.1-.9-1.1s-1.5.7-2.9.7-1.3-.3-1.7-.6l-.2.4h0c0-.2-.2-.4-.3-.4-.2,0-.4.2-.4.4,0,.2.2.3.4.3s.2,0,.3-.1l-.2.4c0,0,.1,0,.2,0-.2,2.1,1.4,4.8,4.1,5.6.4,0,.8,0,.8.4s-.1.4-.4.4-.2,0-.2-.2c0-.2.3,0,.3-.2,0-.2,0-.2-.2-.2s-.5.1-.5.5.3.6.6.6.9-.2.8-.9c.2,0,.3,0,.4-.2v-.5s-.1,0-.1,0v-4.9h.2c.2,0,.3,0,.4-.2,0-.2-.2-.3-.3-.3M52.7,37.7l3.4,4.8c-1.8-.7-3.6-2.3-3.4-4.8M56.2,42l-3.1-4.4h.3c.2,0,.3,0,.5,0l2.5,3.5c0,.4,0,.7-.1.9M56.4,40.7l-2.2-3.1c.2,0,.5-.1.7-.2l1.6,2.3c0,.3,0,.6-.2,1M56.9,37.3h-.1c-.2,0-.3,0-.3.2,0,.2.1.3.3.3h0c0,0,0,0,0,.1,0,.3-.1.7-.2,1.3l-1.4-2c.7-.2,1.2-.5,1.5-.5s.3.1.2.6M65.3,32.2c.1,0,.2-.2.2-.2,0,0-.2,0-.2,0,0,0,.2,0,0-.2,0-.2-.2-.2-.3,0,0,.1-.8,0-.8-.6,0,.1.1.2.2.2,0,0,0,0,0,0h0c0,0,.2,0,.2,0h0c.2,0,.3-.2.3-.3,0-.3-.2-.4-.5-.7,0-.1-.2-.2-.3-.3,0-.2,0-.4-.3-.8,0-.1,0-.2,0-.3-.1.2-.2.7.2,1.1.3.3.9.6.9.9,0,0,0,0-.2.1h0s0,0,0,0c0,0,0,0-.2,0,0,0-.1,0-.2-.2-.3-.2-.5-.6-.7-.8-.3-.4-.2-.8-.1-1.1.2-.3-.1-.9-.3-1,0,0,0-.1,0-.3,0,0-.1,0-.2,0,0-.1,0-.1-.2-.2-.1,0-.1,0-.1-.1,0,0,0,.1-.2.1s-.2,0-.2,0c0,0-.1,0-.2,0s0,0,0,.2,0,.1,0,.2t0,0h0c0,.1,0,0,0,0,0,0,.2,0,.2,0,0,0,0,0,0,0-.1,0-.2,0-.2,0s0,0,0,.2c0,0,0,0,.2,0,.2,0,.4,0,.4,0,0,.3-.4.3-.5.7,0,0-.2-.1-.2-.2,0-.1-.2-.2-.3-.3,0,0-.2-.2-.3-.2-.1,0-.2-.1-.2-.3s0-.2,0-.3c0,0,0,0,0,0,0,0-.1-.1-.2-.1,0,0,0,0,0,.1h0c0,0,0,.1,0,.2h0s0-.1-.2-.1h0c0,0,0-.2-.2,0,0,0,0,0,0,0,0,0,0,0,0,0,0,0,0,.1.2.1h0c-.2,0-.2,0-.2.1h0c0,0,0,.2,0,.2,0,0,0,0,0,0h0s0,0,0,0c0,0,0,0,0,0t0,0s0,0,0,0t0,0c0,0,0,.2,0,.2,0,0-.2,0-.2,0-.1.2,0,.3.3.3,0,0,0,.2,0,.2,0,0,0,0,0,0h0c0,0,0,.1,0,.1t0,0c0,0,0,0,0,.2,0,.2.2.5.6.7-.2,0-.3.3-.5.4-.1,0-.3.2-.4.2,0,0,0,0-.1-.1,0,0,0,0-.1,0,0,0,0,0,0,0,0,0-.1,0-.2,0,0,0,0,0,.1,0h0c0,.1,0,.2.2.2,0,0,0,0,0,0,0,0,0,0,0,0,0,0-.1,0-.2,0,0,0,0,0,0,0h0c0,0-.2.2,0,.2,0,0,0,0,0-.1h0c0,.1.1.1.2,0,0,0,0,0,0,0,0,0-.1.2,0,.2h0c0,.1.2.2.2.1,0,0-.1,0-.2-.2h0c0,0,0-.2,0-.2h0c0,0,0,.1.2,0,0,0,0,0,0-.2.1,0,.2,0,.3,0,0,0,0-.2.2-.2,0,0,.2,0,.2,0,0,0,0-.2.2-.2,0,.6.7.5.9.9-.2,0-.5-.2-.6-.1-.2,0-.5.2-.6.4,0,.2.2.5.3.6-.2,0-.3,0-.5,0h0c-.2,0-.2-.3-.4-.2,0,0,0,0,0,0,0,0-.2,0-.2.2,0,0,0,0,.1,0h0c0,0,0,.1,0,.1s0,0,0,0h0c0,.1-.3,0-.2.2,0,0,0,0,0,0,0,0,0,.1.2,0,0,0,0,0,0,0h0s0,0,0,0h0c0,.2.1.3.2.2,0,0-.1,0-.1,0,0,0,0,0,0,0h0c0,0,0,0,0,0h0s0,0,0,0c0,0,0,0,.2,0q0,0,0,0h0s0,0,.2,0h.1c0-.1.2,0,.2-.1.1,0,0,0,0-.2,0-.2-.1-.2-.2-.3,0-.3.3-.5.5-.4,0,.2.3.6.7.8.3,0,.4-.2.5-.2,0,0,0,0,0,0,0,.1,0,.2,0,.3,0,0-.2,0-.3,0,0,0,0,0,0,0,0,0-.2,0-.2.2,0,0,0,0,.2,0,0,0,0,0,0,0,0,.1.1.2.2,0,0,0,0,0,0,0,0,0-.2.2,0,.2h0c0,0,0,.2.1.2,0,0,0,0,0-.1h0c0,0,0-.1,0-.2h0c0,0,0,.2,0,.2h0c0,0,0,.1.2,0,0,0,0,0,0,0h0c0-.2,0-.2,0-.3,0,0,.2,0,.2-.2h0c0,0,.2-.1.2-.2-.1,0-.2,0-.2,0h0ZM66.9,33.2c.2,0,0,.3,0,.3-.2-1.6-.8-3.2-1.7-4.6h0c.2-.1.3-.3.4-.5-.2,0-.4,0-.6.2,0,0-.1-.2-.2-.2-.6-.7-1.2-1.3-2-1.8-.7-.5-1.4-.8-2.2-1,0-.2.2-.2.3,0,0-.3-.2-.4-.4-.4,0,0-.2.1-.2.2-.1-.1-.3-.2-.4-.2,0,.2,0,.3.1.4-.1,0-.2,0-.2.1,0,.2,0,.4.3.4-.2,0,0-.3,0-.3v3.5c-.2,0-.4,0-.6.1.2.2.4.2.6.2v3.8c-.2,0-.2-.2,0-.3-.3,0-.4.2-.3.4,0,0,.1.1.3.1,0,.1-.2.2-.2.4.1,0,.3,0,.4-.2,0,.2,0,.2.2.3.2,0,.4,0,.4-.3,0,.1-.3,0-.3,0h2.7c0,.2,0,.4.2.6.2-.2.2-.4.2-.6h2.9c0,.2-.2.2-.3,0,0,.3.3.4.4.3,0,0,.2-.1.2-.3,0,0,.2.2.4.2,0-.1,0-.3-.2-.4.1,0,.2,0,.3-.2,0-.1,0-.4-.4-.4M64.3,28.5c0,0-.1.2,0,.3,0,0,.2.2.3.2-.1.1-.2.2-.2.4.2,0,.3,0,.4,0,0,.1,0,.2,0,.3,0,0,.2,0,.2,0,.7,1.1,1.2,2.4,1.3,3.6,0,0-.2,0-.3,0,0,.2,0,.3.2.4h-2.2c0-.2,0-.3-.2-.3,0,0-.2,0-.3,0,0-.1,0-.3-.2-.4-.1.1-.2.2-.2.4-.1-.1-.2-.1-.3,0,0,0-.2.2-.2.3h-1.9c0-.1.1-.2.1-.4-.1,0-.3,0-.4.2v-3.1c.1,0,.3,0,.3-.1,0,0,0-.2-.1-.3.1,0,.3,0,.4-.2-.1,0-.3-.1-.4-.2.1,0,.2-.2.1-.3s-.2-.2-.3-.2v-2.6c0,0,.2.1.3.1,0-.1,0-.3,0-.4.6.2,1.2.5,1.7.8.7.5,1.3,1,1.8,1.6M72.7,34.3c-.3-.2-.8-.7-1.1-1.3-.3-.7-1.8-3.5-2-3.9-.2-.3-.3-.6-.3-.9s.1-.5.3-.7c0-.2.4-.5.5-.6,0-.1.2-.2.3-.3-.5-.9-1.1-1.6-1.8-2.3-.8-.9-1.8-1.8-2.8-2.4.5-.4,1.1-.9,1.1-1.7,0-.5-.2-.9-.6-1.2.6-1.9,1.6-4.1,2.5-5l-1.9-.8c.5.7.5,1.6.4,2.1-.5-.3-.9-.8-1-1.4,0,.5-.4,1.5-.7,2,.5-.3,1-.4,1.5-.2-.3.4-1.1,1.1-2.3.8-.7-.2-1.3-.5-1.3-1,0-.3.2-.7.7-.6.4,0,.4.6.3.9.5-.3,1.1-1.9.2-2.1-.6-.2-1.2.7-1.5,1.4-.1-.9-.5-1.6-1.1-1.6-.8,0-.6,1.6-.3,2,0-.5.3-.9.6-.8.2,0,.5.2.5.7,0,.5-.8.8-1.6.8s-2.2-.2-2.3-1.8c.5,0,1.3.5,1.6,1,0-.9-.1-1.5,0-2.5-.4.6-1.1.9-1.6,1,.1-.6.7-1.3,1.3-1.7h-3.4c.7.4,1.2,1.1,1.4,1.7-.5,0-1.2-.4-1.6-1,.1.9.1,1.6,0,2.5.3-.5,1.1-.9,1.6-1-.1,1.5-1.5,1.8-2.3,1.8s-1.5-.3-1.6-.8c0-.5.2-.7.5-.7.2,0,.5.3.6.8.3-.4.6-2-.3-2-.6,0-1,.7-1.1,1.6-.2-.7-.8-1.6-1.5-1.4-.8.2-.3,1.8.3,2.1-.2-.3-.1-.9.3-.9.4,0,.6.3.7.6,0,.5-.6.9-1.3,1-1.2.3-2-.4-2.3-.8.5-.2,1-.1,1.5.2-.3-.5-.6-1.5-.7-2-.2.6-.6,1.1-1.1,1.4,0-.5,0-1.4.4-2.1l-1.8.8c.8,1,1.9,3.2,2.5,5-.4.3-.5.7-.5,1.2,0,.9.5,1.4,1.1,1.7-1,.7-2,1.5-2.8,2.4-1.3,1.4-2.3,3.1-3,4.9.6.6,1.1,1.2,1.6,1.8.5.6.7,1.2.8,1.6,0,.8.2,1.2.6,1.7.1.2.3.8.4,1.2h9.2v10c-.4,0-.8.1-1.1.5,1.1.4,2.1.8,3.1,1.1,0-.7.2-1.1.5-1.5,0,0-1.3-.2-2-.2v-10h9c0,1.4-.3,2.7-.8,4-.5,1.3-1.1,2.5-2,3.5-.8,1-1.8,1.8-3,2.3-.2,0-.2.2-.4.3-.2.2-.3.5-.5.8,0,.3-.2.5-.2.9.4.1.6.2,1,.3,3.2.8,3.9.6,4.1.4.7-.6,1.4-1.2,2-1.9,1.3-1.5,2.3-3.1,3-4.9.7-1.9,1.1-4,1.1-6.1,0-.4,0-.5,0-.9M58.8,35h-9.2c0-1.4.3-2.8.8-4.1.4-1.3,1.1-2.5,2-3.5.8-1,1.8-1.8,3-2.4,1.1-.5,2.3-.8,3.5-.9v10.8ZM58.9,19.6c-3.1,0-5.2.9-6.4,1.7-.7-.4-1-.9-1-1.3,0-1.7,4.9-1.9,7.4-1.9s7.4.2,7.4,1.9-.3.9-1,1.3c-1.2-.8-3.3-1.7-6.4-1.7M59.3,35v-10.8c1.1,0,2.2.3,3.2.9,1.1.6,2.2,1.4,3,2.4.9,1,1.6,2.2,2,3.5.5,1.3.7,2.7.8,4.1h-9ZM90,57.3c0-.1-.2-.2-.3-.2-2.9.8-6.5-1.5-9.9-3.9-2.9-1.9-5.6-3.8-8-3.8s-1.6.2-2.3.5c-.8.5-1.4,1.2-1.8,2.1-.4,1-.8,1.6-1.2,2.2-.4.6-.7,1.1-.7,1.6s.2.9.6,1.3c.3.3.8.6,1.5,1,.2,0,.3.2.5.2.6.3.9.5,1,.8-1.2.5-2.6.9-4.3,1.2-1.9.3-3.9.5-6.1.5s-4.3-.2-6.2-.5c-1.7-.3-3.2-.7-4.3-1.2,0-.5.4-.7,1-1,.2,0,.3-.2.5-.2.6-.3,1.1-.6,1.5-.9.4-.4.6-.7.6-1.2s-.3-1-.7-1.6c-.3-.5-.8-1.2-1.2-2.2-.4-1-1-1.7-1.9-2.1-.6-.4-1.4-.5-2.3-.5-2.4,0-5.1,1.8-8,3.8-3.5,2.3-7,4.7-9.9,3.9-.2,0-.3,0-.3.2,0,.2,0,.3.2.3.9.4,1.6,1,2.4,1.6,1,.8,2,1.6,3.1,1.6s2.1-.3,3.5-1c1.2-.6,2.4-1.4,3.5-2.2,2.3-1.6,4.6-3.2,6.9-3.3-.2.2-.5.4-.7.6-.7.6-1.2,1.1-1.2,2.1s.3,1.4.7,2.2c0,.2.2.5.4.8.2.5.3,1,.5,1.6,0,.3.2.6.2.9.2.5.4,1.5,2,2.4,1.9,1,5.2,1.5,9.7,1.5s7.8-.5,9.7-1.5c1.6-.8,1.9-1.8,2-2.4,0-.3.2-.6.2-.9.2-.6.2-1,.5-1.6.2-.4.3-.8.5-1,.4-.6.6-1.2.6-1.9,0-1-.6-1.6-1.3-2.2-.2-.2-.5-.4-.7-.7,2.2.2,4.6,1.8,6.9,3.3,1.2.8,2.4,1.6,3.6,2.2,1.3.7,2.4,1,3.5,1s2.1-.8,3.1-1.6c.7-.6,1.5-1.2,2.4-1.6.1,0,.2-.2.1-.3M61.1,54.4c-.2,0-.3,0-.4,0v-2.5c-1.1,0-2.3-.2-3.6-.5v3c-.1,0-.3,0-.4,0-.9,0-1.4.7-1.4,1.4s.4,1.2.7,1.6c.2-.4.3-.7.5-.7.4,0,.2,2.1,1.5,2.2,0,.1,0,.2,0,.3,0,.5.4,1,1,1s1-.5,1-1,0-.2,0-.3c1.2,0,1.1-2.2,1.5-2.2s.3.3.5.7c.3-.4.7-1,.7-1.6s-.5-1.4-1.4-1.4M58.9,59.7c-.3,0-.5-.2-.5-.5,0,0,0,0,0,0,0-.3.2-.5.5-.5s.5.2.5.5c0,.3-.2.5-.5.5,0,0,0,0,0,0M61.9,56.6c-.2-.3-.4-.4-.6-.4-.8,0-.5,2.2-1.5,2.2s-.7-.3-.7-.6.2-.4.2-.6-.2-.3-.4-.3-.4,0-.4.3.2.3.2.6-.2.6-.7.6c-1,0-.7-2.2-1.5-2.2s-.4.2-.5.4c-.2-.3-.3-.6-.3-.9,0-.4.3-.9,1-.9,1.1,0,.8,1.5,1.4,1.5s.4-.2.4-.4c0-.5-.8-.8-.8-1.5s.5-1.2,1.2-1.6c.6.5,1.2,1,1.2,1.6s-.8,1-.8,1.5.2.4.4.4c.5,0,.3-1.5,1.4-1.5s1,.5,1,.9,0,.6-.2.9M62.4,48.3c-2.1-.5-4.5-1.4-6.8-2.4h0c0-.5-.1-1-.5-1.4-.4-.4-.8-.6-1.3-.6s-.4,0-.6,0c-.3-.3-.6-.6-.9-1-.9-1-1.6-2.2-2-3.5-.3-.8-.5-1.5-.6-2.3-.1.7-.8,1.5-2.2,1.6,0-.2,0-.5,0-.5-.3.4-.8.8-2,.4.2.9.5,1.8.8,2.7.7,1.8,1.7,3.5,3,4.9.4.5.8.9,1.3,1.3v.3c0,.5.5,1.2,1.1,1.6.5.2,1.2.2,1.7-.2,1,.5,2.3,1,3.6,1.4,1.5.4,3,.7,4.2.7s2.3-.5,3.6-1.3c.5-.3.9-.7,1.4-1,0,0,.1,0,.2-.2-1,.2-2.5-.1-3.8-.5M54.9,45.2l-.2-.2c-.4-.3-.7-.3-1.1,0-.2.1-.3.3-.5.5l-.2.2h.2c.4.5.5.9.4,1.1,0,0-.1.1-.2.2-.2,0-.5,0-.8-.2h-.2c0,0,0,0,0,0,0,0,0,0,0,.1,0,0,0,0-.1.2-.2.3-.3.5-.3.8s0,0,0,.2c0,.2.2.3.4.4h.1c.2.2.5.3.6.5-.4.2-.7.2-1.1,0-.5-.3-.9-.9-.9-1.2,0-.5.2-1.1.6-1.7h0c0-.1,0-.2,0-.2-.1-.2-.2-.4-.3-.5.2,0,.4,0,.6,0h0s0,0,0,0c.2-.3,1.1-1.2,1.9-1.2s.7.2,1,.5c.2.2.3.5.4.8-.1,0-.3-.2-.4-.3M56.2,49.1c-.5,0-.9-.4-.9-.9,0-.5.4-.9.9-.9,0,0,0,0,0,0,.5,0,.9.4.9.9,0,.5-.4.8-.9.9M60.1,50.3c-.4,0-.8-.4-.8-.8s.4-.8.8-.8.8.3.8.8-.4.8-.8.8M60,3.4c-.5-.4-.8-.9-.9-1.5.5,0,1.1.5,1.5.9V.7c-.4.5-.9.8-1.5.9,0-.5.4-1,.8-1.6h-2.2c.5.6.8,1.1.9,1.6-.5,0-1.2-.5-1.5-.9v2.2c.3-.5.9-.8,1.5-.9,0,.5-.4,1.1-.9,1.5h2.2ZM56.9,6.1c.2.9,1,1.6,2,1.6s1.8-.7,2-1.6h-4ZM59.3,5.3h1.6c-.1-.8-.8-1.5-1.6-1.7v1.7ZM58.5,5.3v-1.7c-.8.2-1.5.8-1.6,1.7h1.6ZM60,8.4c-.2,0-.5.2-.7.2v2.8h.7v-3ZM57.8,11.4h.7v-2.8c-.3,0-.5-.1-.7-.2v3ZM60.2,7.9c0,.4.3.6.7.6.4,0,.6-.3.6-.6,0-.4-.3-.7-.6-.7-.4,0-.7.3-.7.7M62.4,7.9c.4,0,.6-.3.6-.7,0-.3-.3-.6-.6-.6,0,0,0,0,0,0-.4,0-.7.3-.7.6s.3.7.7.7M64,7.4c.4,0,.7-.3.7-.6,0-.4-.3-.7-.7-.7-.4,0-.6.3-.6.7s.3.6.6.6M68.6,8.9c.4,0,.7-.3.7-.7,0-.4-.3-.6-.7-.6-.3,0-.6.3-.6.6,0,0,0,0,0,0,0,.4.3.7.6.7M67.3,7.7c.4,0,.6-.3.6-.7,0-.3-.3-.6-.6-.6,0,0,0,0,0,0-.4,0-.7.3-.7.6s.3.7.7.7M65.7,7.2c.4,0,.7-.3.7-.6,0-.4-.3-.7-.7-.7-.3,0-.6.3-.6.7,0,.4.3.6.6.6M69.2,12.2c-.4,0-.6.3-.6.7s.3.6.6.6.7-.3.7-.6c0-.4-.3-.7-.7-.7M69.5,10.6c-.4,0-.7.3-.7.6s.3.7.7.7c.4,0,.7-.3.7-.6,0,0,0,0,0,0,0-.3-.3-.6-.7-.6M68.6,9.7c0,.4.3.7.7.7s.6-.3.6-.7c0-.3-.3-.6-.6-.6,0,0,0,0,0,0-.4,0-.7.3-.7.6M57,8.6c.3,0,.6-.3.6-.6,0,0,0,0,0,0,0-.4-.3-.7-.6-.7-.4,0-.7.3-.7.7,0,.4.3.6.7.6M55.5,7.9c.3,0,.6-.3.6-.7,0-.4-.3-.6-.6-.6-.4,0-.7.3-.7.6s.3.7.7.7M53.8,7.4c.4,0,.7-.3.7-.6,0-.4-.3-.7-.7-.7-.3,0-.6.3-.6.7s.3.6.6.6M49.2,8.9c.4,0,.6-.3.6-.7,0-.3-.3-.6-.6-.6,0,0,0,0,0,0-.4,0-.7.3-.7.6s.3.7.7.7M50.5,7.7c.3,0,.6-.3.6-.7,0-.4-.3-.6-.6-.6-.4,0-.7.3-.7.6s.3.7.7.7M52.1,7.2c.4,0,.7-.3.7-.6,0-.4-.3-.7-.7-.7-.4,0-.6.3-.6.7s.3.6.6.6M49.3,12.9c0-.4-.3-.7-.7-.7-.3,0-.6.3-.6.7s.3.6.6.6.7-.3.7-.6M48.9,11.3c0-.4-.3-.7-.6-.7-.4,0-.7.3-.7.6,0,0,0,0,0,0,0,.4.3.6.7.6.3,0,.6-.3.6-.6,0,0,0,0,0,0M48.5,10.4c.4,0,.6-.3.6-.7,0-.3-.3-.6-.6-.6,0,0,0,0,0,0-.4,0-.7.3-.7.6s.3.7.7.7M63.7,10.8c.4.7.7,1.1.6,1.7,0,.6-.6,1-.9,1.5-.3-.6-.7-1.1-.6-1.6,0-.5.8-1.2.9-1.5M54.1,10.8c-.4.7-.7,1.1-.6,1.7,0,.6.6,1,.9,1.5.2-.6.7-1.1.6-1.6,0-.5-.8-1.2-.9-1.5M448.6,149.2c-.2-3.7-3-6.7-6.9-6.7s-6.6,3.1-6.8,6.7h13.7ZM452.3,155.8c-1.1,5.3-4.8,8.1-10.2,8.1s-11.2-5.3-11.4-12.6c0-7.2,4.7-12.4,11.2-12.4s11,7.9,10.8,13.7h-17.9c-.1,4.2,2.2,7.9,7.4,7.9s5.5-1.5,6.2-4.7h3.9ZM424.4,147.2c-.6-3-2.6-4.8-5.9-4.8-5.7,0-7.4,4.5-7.4,9.3s2,8.7,7,8.7,6-2.2,6.6-5.8h4c-.9,5.9-4.5,9.3-10.5,9.3s-11.2-5-11.2-12.2,3.7-12.8,11.3-12.8,9.7,2.6,10.3,8.2h-4.1ZM399.2,139.6h3.9v23.9h-3.9v-23.9ZM399.2,130.5h3.9v4.8h-3.9v-4.8ZM386.9,143h-4v-3.5h4v-3.6c0-3.9,2.3-5.9,6.6-5.9s1.8.1,2.5.4v3.4c-.7-.2-1.5-.3-2.2-.3-1.9,0-3,.6-3,2.7v3.3h4.6v3.5h-4.6v20.4h-3.9v-20.4ZM373,143h-4v-3.5h4v-3.6c0-3.9,2.3-5.9,6.6-5.9s1.8.1,2.5.4v3.4c-.7-.2-1.5-.3-2.2-.3-1.9,0-3,.6-3,2.7v3.3h4.6v3.5h-4.6v20.4h-3.9v-20.4ZM351.4,160.5c8,0,11.4-6.9,11.4-13.6s-3.4-13.6-11.4-13.6-11.4,6.9-11.4,13.6,3.3,13.6,11.4,13.6M351.4,129.7c10.5,0,15.8,8.3,15.8,17.3s-5.3,17.2-15.8,17.2-15.8-8.3-15.8-17.2,5.3-17.3,15.8-17.3M315.9,139.6h4.7v3.4h-4.7v14.8c0,1.9.5,2.1,2.9,2.1h1.8v3.5h-3c-4.1,0-5.7-.9-5.7-5.2v-15.2h-4.1v-3.4h4.1v-7.2h3.9v7.2ZM286,139.6h3.7v3.8h0c1.7-2.9,4.3-4.3,7.7-4.3,6.3,0,8.2,3.6,8.2,8.7v15.7h-3.9v-16.2c0-2.9-1.9-4.8-4.9-4.8-4.8,0-7.1,3.2-7.1,7.5v13.5h-3.9v-23.9ZM278.6,149.2c-.2-3.7-2.9-6.7-6.9-6.7s-6.6,3.1-6.8,6.7h13.7ZM282.4,155.9c-1.1,5.3-4.8,8.1-10.2,8.1s-11.2-5.3-11.4-12.6c0-7.2,4.7-12.4,11.2-12.4s11,7.9,10.8,13.7h-17.9c-.1,4.2,2.2,7.9,7.4,7.9s5.5-1.5,6.2-4.7h3.9ZM223.8,139.6h3.7v3.5h0c1.8-2.7,4.3-4.1,7.7-4.1s5.6,1.1,6.6,4.1c1.6-2.6,4.4-4.1,7.5-4.1,4.7,0,7.9,2,7.9,6.9v17.5h-3.9v-15.7c0-2.9-.8-5.3-4.6-5.3s-6.2,2.4-6.2,6.1v14.9h-3.9v-15.7c0-3.1-1-5.3-4.5-5.3s-6.4,4.2-6.4,6.1v14.9h-3.9v-23.9ZM208.7,142.5c-5.3,0-7.3,4.6-7.3,9s2.1,9,7.5,9,7.2-4.6,7.2-9.2-2.3-8.8-7.4-8.8M197.6,139.6h3.9v3.2h0c1.3-2.6,4.3-3.8,7.6-3.8,7.3,0,11,5.8,11,12.6s-3.6,12.4-10.9,12.4-6-.9-7.7-3.7h0v12.3h-3.9v-33ZM182.4,160.5c4.1,0,7.4-3.2,7.4-9s-3.3-9-7.4-9-7.4,3.3-7.4,9,3.3,9,7.4,9M182.4,139c7.6,0,11.6,5.5,11.6,12.5s-4,12.5-11.6,12.5-11.6-5.5-11.6-12.5,4-12.5,11.6-12.5M163.3,130.5h3.9v33h-3.9v-33ZM155.8,149.2c-.2-3.7-2.9-6.7-6.9-6.7s-6.6,3.1-6.8,6.7h13.7ZM159.6,155.9c-1.1,5.3-4.8,8.1-10.2,8.1s-11.2-5.3-11.4-12.6c0-7.2,4.7-12.4,11.2-12.4s11,7.9,10.8,13.7h-17.9c-.2,4.2,2.2,7.9,7.4,7.9s5.5-1.5,6.2-4.7h3.9ZM128.9,163.4h-4.2l-8.9-23.9h4.4l6.7,19.9h.1l6.5-19.9h4.1l-8.7,23.9ZM111.7,149.2c-.2-3.7-2.9-6.7-6.9-6.7s-6.6,3.1-6.8,6.7h13.7ZM115.5,155.8c-1.1,5.3-4.8,8.1-10.2,8.1s-11.2-5.3-11.4-12.6c0-7.2,4.7-12.4,11.2-12.4s11,7.9,10.8,13.7h-17.8c-.2,4.2,2.2,7.9,7.4,7.9s5.5-1.5,6.2-4.7h3.9ZM68.6,159.7h7.3c3,0,11.1-.8,11.1-13s-2.9-12.6-11-12.6h-7.4v25.6ZM64.2,130.5h11.3c10.2,0,15.8,5.1,15.8,15.7s-4.8,17.3-15.8,17.3h-11.3v-33ZM36.7,137.5c0-1.9-1.4-3.5-3.8-3.5s-3.8,1.1-3.8,3.5,1.8,3.9,3.2,5.7c1.9-1.2,4.4-2.9,4.4-5.7M31,147.5c-3.1,1.7-5.7,3.6-5.7,7.4s3.1,5.6,6.3,5.6,5.4-1.5,7-3.9l-7.6-9.1ZM40.8,159.3c-2,3.1-5.7,4.7-9.3,4.7-8.9,0-10.3-6.3-10.3-9,0-5.1,3.5-7.7,7.7-10-1.9-2.6-3.6-4.4-3.6-7.8s2.6-6.8,7.4-6.8,8,2.2,8,6.7-3,6.7-6.2,8.5l6,7.3c.6-1.7,1-3.4,1.1-5.1h3.7c-.4,4-.8,5.1-2.2,8.1l6.4,7.4h-5.1l-3.5-4.1ZM480.3,82h3.9v12.6h0c1.2-2.9,4.7-4.1,7.5-4.1,6.3,0,8.2,3.6,8.2,8.7v15.7h-3.9v-16.2c0-2.9-1.9-4.8-4.8-4.8-4.8,0-7.1,3.2-7.1,7.5v13.5h-3.9v-33ZM472.6,91.1h4.7v3.5h-4.7v14.8c0,1.9.5,2.1,2.9,2.1h1.8v3.5h-3c-4.1,0-5.7-.8-5.7-5.2v-15.2h-4v-3.5h4v-7.2h3.9v7.2ZM458.3,82h3.9v32.9h-3.9v-32.9ZM449,102.6c-3,2.3-11.9,0-11.9,5.9s2.2,3.5,4.6,3.5c5.2,0,7.3-3.2,7.3-5.4v-4ZM455.3,114.8c-.7.4-1.7.6-2.8.6-2,0-3.3-1.1-3.3-3.7-2.2,2.6-5.1,3.7-8.4,3.7s-7.9-1.9-7.9-6.7,4-6.6,8.1-7.3c4.3-.9,8-.5,8-3.5s-2.9-4-5.3-4-5.8,1-6,4.5h-3.9c.2-5.9,4.8-8,10.1-8s9,1,9,6.6v12.3c0,1.9,0,2.7,1.2,2.7s.8,0,1.2-.2v3ZM426.8,100.7c-.2-3.7-2.9-6.7-6.9-6.7s-6.6,3-6.8,6.7h13.7ZM430.6,107.4c-1.1,5.3-4.8,8.1-10.2,8.1s-11.2-5.3-11.4-12.6c0-7.2,4.7-12.4,11.2-12.4s11,7.9,10.8,13.7h-17.9c-.2,4.2,2.2,7.8,7.4,7.8s5.5-1.5,6.2-4.6h3.9ZM400.8,114.9h-4.2l-4.8-19h0l-4.8,19h-4.2l-7.7-23.9h4.3l5.4,19.5h0l4.8-19.5h4.3l5,19.5h0l5.3-19.5h4.1l-7.6,23.9ZM353.5,91.1h3.7v3.8h0c1.7-3,4.3-4.3,7.8-4.3,6.3,0,8.2,3.6,8.2,8.7v15.7h-3.9v-16.2c0-2.9-1.9-4.8-4.8-4.8-4.8,0-7.1,3.2-7.1,7.5v13.5h-3.9v-23.9ZM338.4,112c4.1,0,7.4-3.2,7.4-9s-3.3-9-7.4-9-7.4,3.3-7.4,9,3.3,9,7.4,9M338.4,90.5c7.6,0,11.6,5.5,11.6,12.5s-4,12.4-11.6,12.4-11.6-5.5-11.6-12.4,4-12.5,11.6-12.5M289.8,91.1h3.7v3.5h0c1.8-2.7,4.3-4.1,7.7-4.1s5.6,1.1,6.6,4.1c1.6-2.6,4.4-4.1,7.5-4.1,4.7,0,7.9,2,7.9,6.9v17.5h-3.9v-15.6c0-3-.8-5.3-4.6-5.3s-6.2,2.4-6.2,6.1v14.8h-3.9v-15.6c0-3.1-1-5.3-4.5-5.3s-6.4,4.2-6.4,6.1v14.8h-3.9v-23.9ZM251.5,91.1h3.7v3.5h.1c1.8-2.7,4.3-4.1,7.7-4.1s5.6,1.1,6.5,4.1c1.6-2.6,4.4-4.1,7.5-4.1,4.8,0,7.9,2,7.9,6.9v17.5h-3.9v-15.6c0-3-.8-5.3-4.6-5.3s-6.2,2.4-6.2,6.1v14.8h-3.9v-15.6c0-3.1-1-5.3-4.5-5.3s-6.4,4.2-6.4,6.1v14.8h-3.9v-23.9ZM236.4,112c4.1,0,7.4-3.2,7.4-9s-3.3-9-7.4-9-7.4,3.3-7.4,9,3.3,9,7.4,9M236.4,90.5c7.6,0,11.6,5.5,11.6,12.5s-4,12.4-11.6,12.4-11.6-5.5-11.6-12.4,4-12.5,11.6-12.5M217.6,91.9c-1-4.6-4.6-7-9.2-7-7.9,0-11.2,6.5-11.2,13.4s3.3,13.8,11.2,13.8,9.1-4,9.5-9.5h4.4c-.9,8.3-5.9,13.2-14.3,13.2s-15.2-7.6-15.2-17.2,5.5-17.3,15.6-17.3,12.6,3.7,13.6,10.7h-4.4ZM169.9,109.8h5.1v4.7c0,3.5-1.5,6.2-5.1,7.3v-2.3c2-.8,2.8-3,2.7-4.5h-2.7v-5.1ZM145,91.1h3.7v3.8h0c1.7-3,4.3-4.3,7.8-4.3,6.3,0,8.2,3.6,8.2,8.7v15.7h-3.9v-16.2c0-2.9-1.9-4.8-4.9-4.8-4.7,0-7,3.2-7,7.5v13.5h-3.9v-23.9ZM136.3,102.5c0-4.2-1.9-8.5-6.8-8.5s-7,4.1-7,8.7,1.5,9.1,6.7,9.1,7.1-4.7,7.1-9.2M140.2,112.9c0,7.8-3.5,11.7-11.1,11.7s-9.6-1.8-9.9-7h3.9c.2,2.8,3.6,3.9,6.2,3.9,5.1,0,7.2-3.7,7.2-9v-1.6h0c-1.3,2.9-4.4,4.3-7.4,4.3-7.1,0-10.7-5.6-10.7-12.1s2.7-12.6,11-12.6,5.7,1.3,7.1,3.9h0v-3.4h3.7v21.8ZM110.8,91.1h3.9v23.9h-3.9v-23.9ZM114.7,86.8h-3.9v-4.8h3.9v4.8ZM103.3,100.7c-.2-3.7-2.9-6.7-6.9-6.7s-6.6,3-6.8,6.7h13.7ZM107.1,107.4c-1.1,5.3-4.8,8.1-10.2,8.1s-11.2-5.3-11.4-12.6c0-7.2,4.7-12.4,11.2-12.4s11.1,7.9,10.8,13.7h-17.8c-.2,4.2,2.2,7.8,7.4,7.8s5.5-1.5,6.2-4.6h3.9ZM72.5,91.1h3.7v5h0c1.9-3.9,4.5-5.7,8.8-5.6v4.2c-6.3,0-8.6,3.6-8.6,9.7v10.6h-3.9v-23.9ZM57.5,112c4.1,0,7.4-3.2,7.4-9s-3.3-9-7.4-9-7.4,3.3-7.4,9,3.3,9,7.4,9M57.5,90.5c7.6,0,11.6,5.5,11.6,12.5s-4,12.4-11.6,12.4-11.6-5.5-11.6-12.4,4-12.5,11.6-12.5M23.2,82h21.6v3.7h-17.2v10.5h15.1v3.7h-15.1v15.1h-4.4v-33Z"/>
    </g>
  </g>
</svg>